<svg id="visual" viewBox="0 0 900 600" width="900" height="600" xmlns="http://www.w3.org/2000/svg" xmlns:xlink="http://www.w3.org/1999/xlink" version="1.1"><path d="M0 139L13.7 134C27.3 129 54.7 119 82 121C109.3 123 136.7 137 163.8 128C191 119 218 87 245.2 78C272.3 69 299.7 83 327 99C354.3 115 381.7 133 409 135C436.3 137 463.7 123 491 118C518.3 113 545.7 117 573 121C600.3 125 627.7 129 654.8 132C682 135 709 137 736.2 138C763.3 139 790.7 139 818 131C845.3 123 872.7 107 886.3 99L900 91L900 0L886.3 0C872.7 0 845.3 0 818 0C790.7 0 763.3 0 736.2 0C709 0 682 0 654.8 0C627.7 0 600.3 0 573 0C545.7 0 518.3 0 491 0C463.7 0 436.3 0 409 0C381.7 0 354.3 0 327 0C299.7 0 272.3 0 245.2 0C218 0 191 0 163.8 0C136.7 0 109.3 0 82 0C54.7 0 27.3 0 13.7 0L0 0Z" fill="#6198ff"></path><path d="M0 241L13.7 232C27.3 223 54.7 205 82 196C109.3 187 136.7 187 163.8 173C191 159 218 131 245.2 124C272.3 117 299.7 131 327 154C354.3 177 381.7 209 409 213C436.3 217 463.7 193 491 181C518.3 169 545.7 169 573 177C600.3 185 627.7 201 654.8 206C682 211 709 205 736.2 209C763.3 213 790.7 227 818 218C845.3 209 872.7 177 886.3 161L900 145L900 89L886.3 97C872.7 105 845.3 121 818 129C790.7 137 763.3 137 736.2 136C709 135 682 133 654.8 130C627.7 127 600.3 123 573 119C545.7 115 518.3 111 491 116C463.7 121 436.3 135 409 133C381.7 131 354.3 113 327 97C299.7 81 272.3 67 245.2 76C218 85 191 117 163.8 126C136.7 135 109.3 121 82 119C54.7 117 27.3 127 13.7 132L0 137Z" fill="#3c80ff"></path><path d="M0 349L13.7 331C27.3 313 54.7 277 82 267C109.3 257 136.7 273 163.8 270C191 267 218 245 245.2 230C272.3 215 299.7 207 327 219C354.3 231 381.7 263 409 272C436.3 281 463.7 267 491 257C518.3 247 545.7 241 573 244C600.3 247 627.7 259 654.8 264C682 269 709 267 736.2 270C763.3 273 790.7 281 818 278C845.3 275 872.7 261 886.3 254L900 247L900 143L886.3 159C872.7 175 845.3 207 818 216C790.7 225 763.3 211 736.2 207C709 203 682 209 654.8 204C627.7 199 600.3 183 573 175C545.7 167 518.3 167 491 179C463.7 191 436.3 215 409 211C381.7 207 354.3 175 327 152C299.7 129 272.3 115 245.2 122C218 129 191 157 163.8 171C136.7 185 109.3 185 82 194C54.7 203 27.3 221 13.7 230L0 239Z" fill="#0066ff"></path><path d="M0 463L13.7 446C27.3 429 54.7 395 82 394C109.3 393 136.7 425 163.8 447C191 469 218 481 245.2 460C272.3 439 299.7 385 327 389C354.3 393 381.7 455 409 479C436.3 503 463.7 489 491 465C518.3 441 545.7 407 573 402C600.3 397 627.7 421 654.8 441C682 461 709 477 736.2 472C763.3 467 790.7 441 818 436C845.3 431 872.7 447 886.3 455L900 463L900 245L886.3 252C872.7 259 845.3 273 818 276C790.7 279 763.3 271 736.2 268C709 265 682 267 654.8 262C627.7 257 600.3 245 573 242C545.7 239 518.3 245 491 255C463.7 265 436.3 279 409 270C381.7 261 354.3 229 327 217C299.7 205 272.3 213 245.2 228C218 243 191 265 163.8 268C136.7 271 109.3 255 82 265C54.7 275 27.3 311 13.7 329L0 347Z" fill="#0059dd"></path><path d="M0 601L13.7 601C27.3 601 54.7 601 82 601C109.3 601 136.7 601 163.8 601C191 601 218 601 245.2 601C272.3 601 299.7 601 327 601C354.3 601 381.7 601 409 601C436.3 601 463.7 601 491 601C518.3 601 545.7 601 573 601C600.3 601 627.7 601 654.8 601C682 601 709 601 736.2 601C763.3 601 790.7 601 818 601C845.3 601 872.7 601 886.3 601L900 601L900 461L886.3 453C872.7 445 845.3 429 818 434C790.7 439 763.3 465 736.2 470C709 475 682 459 654.8 439C627.7 419 600.3 395 573 400C545.7 405 518.3 439 491 463C463.7 487 436.3 501 409 477C381.7 453 354.3 391 327 387C299.7 383 272.3 437 245.2 458C218 479 191 467 163.8 445C136.7 423 109.3 391 82 392C54.7 393 27.3 427 13.7 444L0 461Z" fill="#004cbb"></path></svg>