<svg id="visual" viewBox="0 0 900 600" width="900" height="600" xmlns="http://www.w3.org/2000/svg" xmlns:xlink="http://www.w3.org/1999/xlink" version="1.1"><path d="M0 151L82 151L82 79L164 79L164 253L245 253L245 259L327 259L327 175L409 175L409 247L491 247L491 97L573 97L573 307L655 307L655 229L736 229L736 85L818 85L818 109L900 109L900 151L900 0L900 0L818 0L818 0L736 0L736 0L655 0L655 0L573 0L573 0L491 0L491 0L409 0L409 0L327 0L327 0L245 0L245 0L164 0L164 0L82 0L82 0L0 0Z" fill="#fa7268"></path><path d="M0 205L82 205L82 157L164 157L164 301L245 301L245 325L327 325L327 253L409 253L409 301L491 301L491 193L573 193L573 349L655 349L655 319L736 319L736 175L818 175L818 157L900 157L900 199L900 149L900 107L818 107L818 83L736 83L736 227L655 227L655 305L573 305L573 95L491 95L491 245L409 245L409 173L327 173L327 257L245 257L245 251L164 251L164 77L82 77L82 149L0 149Z" fill="#ea5e66"></path><path d="M0 277L82 277L82 271L164 271L164 367L245 367L245 427L327 427L327 313L409 313L409 391L491 391L491 235L573 235L573 445L655 445L655 391L736 391L736 259L818 259L818 253L900 253L900 247L900 197L900 155L818 155L818 173L736 173L736 317L655 317L655 347L573 347L573 191L491 191L491 299L409 299L409 251L327 251L327 323L245 323L245 299L164 299L164 155L82 155L82 203L0 203Z" fill="#d84a64"></path><path d="M0 451L82 451L82 463L164 463L164 445L245 445L245 511L327 511L327 511L409 511L409 529L491 529L491 457L573 457L573 541L655 541L655 499L736 499L736 457L818 457L818 457L900 457L900 529L900 245L900 251L818 251L818 257L736 257L736 389L655 389L655 443L573 443L573 233L491 233L491 389L409 389L409 311L327 311L327 425L245 425L245 365L164 365L164 269L82 269L82 275L0 275Z" fill="#c53762"></path><path d="M0 601L82 601L82 601L164 601L164 601L245 601L245 601L327 601L327 601L409 601L409 601L491 601L491 601L573 601L573 601L655 601L655 601L736 601L736 601L818 601L818 601L900 601L900 601L900 527L900 455L818 455L818 455L736 455L736 497L655 497L655 539L573 539L573 455L491 455L491 527L409 527L409 509L327 509L327 509L245 509L245 443L164 443L164 461L82 461L82 449L0 449Z" fill="#b0235f"></path></svg>